<svg xmlns="http://www.w3.org/2000/svg" version="1.1" xmlns:xlink="http://www.w3.org/1999/xlink" xmlns:svgjs="http://svgjs.dev/svgjs" width="2000" height="1999" viewBox="0 0 2000 1999"><g transform="matrix(1,0,0,1,-0.431486880466764,-0.4312711370263287)"><svg viewBox="0 0 343 343" data-background-color="#ffffff" preserveAspectRatio="xMidYMid meet" height="1999" width="2000" xmlns="http://www.w3.org/2000/svg" xmlns:xlink="http://www.w3.org/1999/xlink"><g id="tight-bounds" transform="matrix(1,0,0,1,0.0740000000000407,0.07400000000001228)"><svg viewBox="0 0 342.85155851775386 342.85155851775386" height="342.85155851775386" width="342.85155851775386"><g><svg></svg></g><g><svg viewBox="0 0 342.85155851775386 342.85155851775386" height="342.85155851775386" width="342.85155851775386"><g><path d="M0 171.426c0-94.676 76.75-171.426 171.426-171.426 94.676 0 171.426 76.75 171.426 171.426 0 94.676-76.75 171.426-171.426 171.426-94.676 0-171.426-76.75-171.426-171.426zM171.426 329.17c87.12 0 157.745-70.625 157.744-157.744 0-87.12-70.625-157.745-157.744-157.745-87.12 0-157.745 70.625-157.745 157.745 0 87.12 70.625 157.745 157.745 157.744z" data-fill-palette-color="tertiary" fill="#51006d" stroke="transparent"></path><ellipse rx="164.56874808852186" ry="164.56874808852186" cx="171.42577925887693" cy="171.42577925887693" fill="#51006d" stroke="transparent" stroke-width="0" fill-opacity="1" data-fill-palette-color="tertiary"></ellipse></g><g transform="matrix(1,0,0,1,64.84655864529837,95.57209972308677)"><svg viewBox="0 0 213.1584412271571 151.70735907158033" height="151.70735907158033" width="213.1584412271571"><g><svg viewBox="0 0 213.1584412271571 151.70735907158033" height="151.70735907158033" width="213.1584412271571"><g><svg viewBox="0 0 213.1584412271571 151.70735907158033" height="151.70735907158033" width="213.1584412271571"><g><svg viewBox="0 0 213.1584412271571 151.70735907158033" height="151.70735907158033" width="213.1584412271571"><g id="textblocktransform"><svg viewBox="0 0 213.1584412271571 151.70735907158033" height="151.70735907158033" width="213.1584412271571" id="textblock"><g><svg viewBox="0 0 213.1584412271571 151.70735907158033" height="151.70735907158033" width="213.1584412271571"><g transform="matrix(1,0,0,1,0,0)"><svg width="213.1584412271571" viewBox="0.5 -22.65 33.3 23.7" height="151.70735907158033" data-palette-color="#ffffff"><path d="M16.7-6.85L16.7-6.85Q16.7-4.7 15.88-3.1 15.05-1.5 14-0.75 12.95 0 11.5 0.45L11.5 0.45Q9.6 1.05 8.05 1.05L8.05 1.05Q4.8 1.05 2.65-0.23 0.5-1.5 0.5-4.3L0.5-4.3Q0.5-5.95 1.4-7L1.4-7Q2.8-8.55 4.75-8.55L4.75-8.55Q5.35-8.55 5.35-8L5.35-8Q5.35-7.95 5.13-7.23 4.9-6.5 4.9-5.4 4.9-4.3 5.78-3.45 6.65-2.6 7.9-2.6 9.15-2.6 9.9-3.03 10.65-3.45 10.95-4.1L10.95-4.1Q11.4-5 11.4-5.8L11.4-5.8Q11.4-7.25 9.95-8.3 8.5-9.35 6.75-9.95 5-10.55 3.55-11.95 2.1-13.35 2.1-15.45L2.1-15.45Q2.1-19.05 4.38-20.85 6.65-22.65 10.55-22.65L10.55-22.65Q12.25-22.65 14.13-22.18 16-21.7 16-20.58 16-19.45 15.63-18.5 15.25-17.55 14.7-17.55L14.7-17.55Q14.4-17.55 14.3-17.78 14.2-18 13.95-18.3 13.7-18.6 12.75-19.07 11.8-19.55 11.13-19.55 10.45-19.55 10.23-19.53 10-19.5 9.45-19.38 8.9-19.25 8.45-19L8.45-19Q7.3-18.35 7.3-17.1L7.3-17.1Q7.3-16.3 7.65-15.93 8-15.55 8.2-15.35 8.4-15.15 8.9-14.88 9.4-14.6 9.6-14.5 9.8-14.4 10.5-14.08 11.2-13.75 11.4-13.65L11.4-13.65Q16.7-11.15 16.7-6.85ZM33.8-6.85L33.8-6.85Q33.8-4.7 32.97-3.1 32.15-1.5 31.1-0.75 30.05 0 28.6 0.45L28.6 0.45Q26.7 1.05 25.15 1.05L25.15 1.05Q21.9 1.05 19.75-0.23 17.6-1.5 17.6-4.3L17.6-4.3Q17.6-5.95 18.5-7L18.5-7Q19.9-8.55 21.85-8.55L21.85-8.55Q22.45-8.55 22.45-8L22.45-8Q22.45-7.95 22.22-7.23 22-6.5 22-5.4 22-4.3 22.87-3.45 23.75-2.6 25-2.6 26.25-2.6 27-3.03 27.75-3.45 28.05-4.1L28.05-4.1Q28.5-5 28.5-5.8L28.5-5.8Q28.5-7.25 27.05-8.3 25.6-9.35 23.85-9.95 22.1-10.55 20.65-11.95 19.2-13.35 19.2-15.45L19.2-15.45Q19.2-19.05 21.47-20.85 23.75-22.65 27.65-22.65L27.65-22.65Q29.35-22.65 31.22-22.18 33.1-21.7 33.1-20.58 33.1-19.45 32.72-18.5 32.35-17.55 31.8-17.55L31.8-17.55Q31.5-17.55 31.4-17.78 31.3-18 31.05-18.3 30.8-18.6 29.85-19.07 28.9-19.55 28.22-19.55 27.55-19.55 27.32-19.53 27.1-19.5 26.55-19.38 26-19.25 25.55-19L25.55-19Q24.4-18.35 24.4-17.1L24.4-17.1Q24.4-16.3 24.75-15.93 25.1-15.55 25.3-15.35 25.5-15.15 26-14.88 26.5-14.6 26.7-14.5 26.9-14.4 27.6-14.08 28.3-13.75 28.5-13.65L28.5-13.65Q33.8-11.15 33.8-6.85Z" opacity="1" transform="matrix(1,0,0,1,0,0)" fill="#ffffff" class="wordmark-text-0" data-fill-palette-color="quaternary" id="text-0"></path></svg></g></svg></g></svg></g></svg></g><g></g></svg></g></svg></g></svg></g></svg></g><defs></defs></svg><rect width="342.85155851775386" height="342.85155851775386" fill="none" stroke="none" visibility="hidden"></rect></g></svg></g></svg>